<svg width="75" height="75" viewBox="0 0 75 75" fill="none" xmlns="http://www.w3.org/2000/svg">
<path d="M50 37.5H56.25V50H50V37.5Z" fill="white"/>
<path d="M62.5 21.875V15.625C62.5 12.1781 59.6969 9.375 56.25 9.375H15.625C10.4562 9.375 6.25 13.5812 6.25 18.75V56.25C6.25 63.1281 11.8563 65.625 15.625 65.625H62.5C65.9469 65.625 68.75 62.8219 68.75 59.375V28.125C68.75 24.6781 65.9469 21.875 62.5 21.875ZM15.625 15.625H56.25V21.875H15.625C14.8204 21.839 14.0606 21.494 13.504 20.9119C12.9473 20.3298 12.6367 19.5554 12.6367 18.75C12.6367 17.9446 12.9473 17.1702 13.504 16.5881C14.0606 16.006 14.8204 15.661 15.625 15.625ZM62.5 59.375H15.6625C14.2188 59.3375 12.5 58.7656 12.5 56.25V27.5469C13.4813 27.9 14.5219 28.125 15.625 28.125H62.5V59.375Z" fill="white"/>
<path d="M12 70.9809L64.3312 4.00001" stroke="white" stroke-width="5" stroke-linecap="round"/>
</svg>
