<svg width="75" height="75" viewBox="0 0 75 75" fill="none" xmlns="http://www.w3.org/2000/svg">
<path d="M12.5 12.5V62.5C12.5 65.9469 15.3031 68.75 18.75 68.75H56.25C59.6969 68.75 62.5 65.9469 62.5 62.5V25C62.5004 24.5896 62.4198 24.1831 62.2626 23.804C62.1055 23.4248 61.875 23.0804 61.5844 22.7906L45.9594 7.16563C45.6697 6.87487 45.3253 6.64428 44.9461 6.48714C44.567 6.33 44.1604 6.24941 43.75 6.25H18.75C15.3031 6.25 12.5 9.05313 12.5 12.5ZM56.25 26.2938L56.2531 62.5H18.75V12.5H42.4563L56.25 26.2938Z" fill="white"/>
<path d="M21.23 31H26.09C27.73 31 28.96 31.44 29.78 32.32C30.6 33.2 31.01 34.49 31.01 36.19V38.26C31.01 39.96 30.6 41.25 29.78 42.13C28.96 43.01 27.73 43.45 26.09 43.45H24.53V52H21.23V31ZM26.09 40.45C26.63 40.45 27.03 40.3 27.29 40C27.57 39.7 27.71 39.19 27.71 38.47V35.98C27.71 35.26 27.57 34.75 27.29 34.45C27.03 34.15 26.63 34 26.09 34H24.53V40.45H26.09ZM32.8023 31H37.8423C39.4823 31 40.7123 31.44 41.5323 32.32C42.3523 33.2 42.7623 34.49 42.7623 36.19V46.81C42.7623 48.51 42.3523 49.8 41.5323 50.68C40.7123 51.56 39.4823 52 37.8423 52H32.8023V31ZM37.7823 49C38.3223 49 38.7323 48.84 39.0123 48.52C39.3123 48.2 39.4623 47.68 39.4623 46.96V36.04C39.4623 35.32 39.3123 34.8 39.0123 34.48C38.7323 34.16 38.3223 34 37.7823 34H36.1023V49H37.7823ZM44.9898 31H53.7198V34H48.2898V39.85H52.5498V42.85H48.2898V52H44.9898V31Z" fill="white"/>
</svg>
