<svg width="75" height="108" viewBox="0 0 75 108" fill="none" xmlns="http://www.w3.org/2000/svg">
<path d="M9 35L30 35" stroke="white" stroke-width="3" stroke-linecap="round"/>
<path d="M9 25L30 25" stroke="white" stroke-width="3" stroke-linecap="round"/>
<path d="M29 66H56" stroke="white" stroke-width="3" stroke-linecap="round"/>
<path d="M29 56L56 56" stroke="white" stroke-width="3" stroke-linecap="round"/>
<path d="M9 45H56" stroke="white" stroke-width="3" stroke-linecap="round"/>
<path d="M9 87L56 87" stroke="white" stroke-width="3" stroke-linecap="round"/>
<path d="M70 0C72.7614 0 75 2.23858 75 5V95L74.9932 95.2568C74.8638 97.8138 72.8138 99.8638 70.2568 99.9932L70 100H65V97H70C71.1046 97 72 96.1046 72 95V5C72 3.89543 71.1046 3 70 3H14C12.8954 3 12 3.89543 12 5V10H9V5C9 2.23858 11.2386 8.05321e-08 14 0H70Z" fill="white"/>
<path d="M44.1982 11H5C3.89543 11 3 11.8954 3 13V103C3 104.105 3.89543 105 5 105H61C62.1046 105 63 104.105 63 103V26.9385L66 29.4814V103L65.9932 103.257C65.8638 105.814 63.8138 107.864 61.2568 107.993L61 108H5L4.74316 107.993C2.18618 107.864 0.136224 105.814 0.00683594 103.257L0 103V13C6.44277e-07 10.2386 2.23858 8 5 8H40.6592L44.1982 11Z" fill="white"/>
<mask id="path-9-inside-1_53_2" fill="white">
<path d="M64.2316 26.2311C67.7689 29.247 65.6361 35.0359 60.9876 35.0359H41C38.2386 35.0359 36 32.7973 36 30.0359V12.9945C36 8.72894 40.998 6.42222 44.244 9.18972L64.2316 26.2311Z"/>
</mask>
<path d="M64.2316 26.2311L62.2852 28.514L64.2316 26.2311ZM60.9876 35.0359V32.0359H41V35.0359V38.0359H60.9876V35.0359ZM36 30.0359H39V12.9945H36H33V30.0359H36ZM44.244 9.18972L42.2976 11.4726L62.2852 28.514L64.2316 26.2311L66.1779 23.9482L46.1904 6.90683L44.244 9.18972ZM36 12.9945H39C39 11.2883 40.9992 10.3656 42.2976 11.4726L44.244 9.18972L46.1904 6.90683C40.9968 2.47883 33 6.16958 33 12.9945H36ZM41 35.0359V32.0359C39.8954 32.0359 39 31.1405 39 30.0359H36H33C33 34.4542 36.5817 38.0359 41 38.0359V35.0359ZM60.9876 35.0359V38.0359C68.4252 38.0359 71.8377 28.7737 66.1779 23.9482L64.2316 26.2311L62.2852 28.514C63.7001 29.7204 62.847 32.0359 60.9876 32.0359V35.0359Z" fill="white" mask="url(#path-9-inside-1_53_2)"/>
<path d="M16.236 80.36C14.316 80.36 12.852 79.82 11.844 78.74C10.836 77.636 10.332 76.064 10.332 74.024V54.8H14.292V74.312C14.292 75.176 14.46 75.8 14.796 76.184C15.156 76.568 15.66 76.76 16.308 76.76C16.956 76.76 17.448 76.568 17.784 76.184C18.144 75.8 18.324 75.176 18.324 74.312V54.8H22.14V74.024C22.14 76.064 21.636 77.636 20.628 78.74C19.62 79.82 18.156 80.36 16.236 80.36Z" fill="white"/>
<path d="M24.3 75.2H26.94V76.4H24.3V75.2ZM28.9264 71.6H30.5824L31.8664 76.628H31.8904V71.6H33.0664V80H31.7104L30.1264 73.868H30.1024V80H28.9264V71.6ZM37.1555 80.12C36.5075 80.12 36.0115 79.936 35.6675 79.568C35.3235 79.2 35.1515 78.68 35.1515 78.008V73.592C35.1515 72.92 35.3235 72.4 35.6675 72.032C36.0115 71.664 36.5075 71.48 37.1555 71.48C37.8035 71.48 38.2995 71.664 38.6435 72.032C38.9875 72.4 39.1595 72.92 39.1595 73.592V78.008C39.1595 78.68 38.9875 79.2 38.6435 79.568C38.2995 79.936 37.8035 80.12 37.1555 80.12ZM37.1555 78.92C37.6115 78.92 37.8395 78.644 37.8395 78.092V73.508C37.8395 72.956 37.6115 72.68 37.1555 72.68C36.6995 72.68 36.4715 72.956 36.4715 73.508V78.092C36.4715 78.644 36.6995 78.92 37.1555 78.92ZM42.2373 72.8H40.8573V71.6H44.9373V72.8H43.5573V80H42.2373V72.8ZM46.7764 71.6H50.3764V72.8H48.0964V75.02H49.9084V76.22H48.0964V78.8H50.3764V80H46.7764V71.6ZM54.0752 80.12C53.4352 80.12 52.9512 79.94 52.6232 79.58C52.2952 79.212 52.1312 78.688 52.1312 78.008V77.528H53.3792V78.104C53.3792 78.648 53.6072 78.92 54.0632 78.92C54.2872 78.92 54.4552 78.856 54.5672 78.728C54.6872 78.592 54.7472 78.376 54.7472 78.08C54.7472 77.728 54.6672 77.42 54.5072 77.156C54.3472 76.884 54.0512 76.56 53.6192 76.184C53.0752 75.704 52.6952 75.272 52.4792 74.888C52.2632 74.496 52.1552 74.056 52.1552 73.568C52.1552 72.904 52.3232 72.392 52.6592 72.032C52.9952 71.664 53.4832 71.48 54.1232 71.48C54.7552 71.48 55.2312 71.664 55.5512 72.032C55.8792 72.392 56.0432 72.912 56.0432 73.592V73.94H54.7952V73.508C54.7952 73.22 54.7392 73.012 54.6272 72.884C54.5152 72.748 54.3512 72.68 54.1352 72.68C53.6952 72.68 53.4752 72.948 53.4752 73.484C53.4752 73.788 53.5552 74.072 53.7152 74.336C53.8832 74.6 54.1832 74.92 54.6152 75.296C55.1672 75.776 55.5472 76.212 55.7552 76.604C55.9632 76.996 56.0672 77.456 56.0672 77.984C56.0672 78.672 55.8952 79.2 55.5512 79.568C55.2152 79.936 54.7232 80.12 54.0752 80.12Z" fill="white"/>
</svg>
