<svg width="80" height="103" viewBox="0 0 80 103" fill="none" xmlns="http://www.w3.org/2000/svg">
<path d="M37.5 35.8125C34.4097 35.8125 31.3887 36.7289 28.8192 38.4458C26.2497 40.1627 24.247 42.603 23.0644 45.4581C21.8818 48.3132 21.5723 51.4548 22.1752 54.4858C22.7781 57.5167 24.2663 60.3008 26.4515 62.486C28.6367 64.6712 31.4208 66.1594 34.4517 66.7623C37.4827 67.3652 40.6243 67.0557 43.4794 65.8731C46.3345 64.6905 48.7748 62.6878 50.4917 60.1183C52.2086 57.5488 53.125 54.5278 53.125 51.4375C53.125 47.2935 51.4788 43.3192 48.5485 40.389C45.6183 37.4587 41.644 35.8125 37.5 35.8125ZM37.5 60.8125C35.6458 60.8125 33.8332 60.2627 32.2915 59.2325C30.7498 58.2024 29.5482 56.7382 28.8386 55.0252C28.1291 53.3121 27.9434 51.4271 28.3051 49.6085C28.6669 47.79 29.5598 46.1195 30.8709 44.8084C32.182 43.4973 33.8525 42.6044 35.671 42.2426C37.4896 41.8809 39.3746 42.0666 41.0877 42.7761C42.8007 43.4857 44.2649 44.6873 45.295 46.229C46.3252 47.7707 46.875 49.5833 46.875 51.4375C46.875 53.9239 45.8873 56.3085 44.1291 58.0666C42.371 59.8248 39.9864 60.8125 37.5 60.8125ZM65.625 95.1875V92.0625C65.625 86.2609 63.3203 80.6969 59.218 76.5945C55.1156 72.4922 49.5516 70.1875 43.75 70.1875H31.25C25.4484 70.1875 19.8844 72.4922 15.782 76.5945C11.6797 80.6969 9.375 86.2609 9.375 92.0625V95.1875H15.625V92.0625C15.625 87.9185 17.2712 83.9442 20.2015 81.014C23.1317 78.0837 27.106 76.4375 31.25 76.4375H43.75C47.894 76.4375 51.8683 78.0837 54.7985 81.014C57.7288 83.9442 59.375 87.9185 59.375 92.0625V95.1875H65.625Z" fill="white"/>
<path d="M58.6999 29.9628C59.0711 28.9429 59.5738 28.0333 60.2081 27.2341C60.88 26.4173 61.8639 25.558 63.1598 24.6561C64.6638 23.6115 65.7806 22.6445 66.5101 21.755C67.2397 20.8656 67.8101 19.8558 68.2214 18.7257C68.5826 17.7333 68.6505 16.9464 68.4251 16.3649C68.2098 15.7559 67.73 15.3159 66.9858 15.0451C66.2415 14.7742 65.5912 14.8028 65.0347 15.1309C64.4883 15.4315 64.0345 16.078 63.6733 17.0703L62.5296 20.2126L58.2296 18.6475L59.268 15.7946C60.1207 13.4516 61.3379 11.8656 62.9195 11.0366C64.5111 10.18 66.3958 10.1479 68.5733 10.9405C70.7785 11.7431 72.2154 12.9841 72.884 14.6634C73.5902 16.3251 73.517 18.3275 72.6642 20.6705C72.2027 21.9384 71.522 23.0797 70.622 24.0945C69.7596 25.0916 68.5112 26.12 66.8769 27.1796C65.5635 28.0439 64.5821 28.8104 63.9328 29.4794C63.3211 30.1308 62.8798 30.8286 62.609 31.5729L62.0371 33.144L58.0678 31.6993L58.6999 29.9628ZM56.6722 34.8905L61.055 36.4856L59.4598 40.8684L55.0771 39.2732L56.6722 34.8905Z" fill="white"/>
</svg>
