<svg width="75" height="75" viewBox="0 0 75 75" fill="none" xmlns="http://www.w3.org/2000/svg">
<path d="M37.5 6.75C20.2688 6.75 6.25 20.7688 6.25 38C6.25 55.2312 20.2688 69.25 37.5 69.25C54.7312 69.25 68.75 55.2312 68.75 38C68.75 20.7688 54.7312 6.75 37.5 6.75ZM12.5 38C12.5 35.1906 12.9875 32.4937 13.8469 29.9719L18.75 34.875L25 41.125V47.375L31.25 53.625L34.375 56.75V62.7844C22.0656 61.2375 12.5 50.725 12.5 38ZM57.2812 53.2281C55.2406 51.5844 52.1469 50.5 50 50.5V47.375C50 45.7174 49.3415 44.1277 48.1694 42.9556C46.9973 41.7835 45.4076 41.125 43.75 41.125H31.25V31.75C32.9076 31.75 34.4973 31.0915 35.6694 29.9194C36.8415 28.7473 37.5 27.1576 37.5 25.5V22.375H40.625C42.2826 22.375 43.8723 21.7165 45.0444 20.5444C46.2165 19.3723 46.875 17.7826 46.875 16.125V14.8406C56.025 18.5563 62.5 27.5313 62.5 38C62.4994 43.5147 60.6633 48.8723 57.2812 53.2281Z" fill="white"/>
</svg>
